<svg width="32" height="32" xmlns="http://www.w3.org/2000/svg"><path d="M3 0h25a4 4 0 0 1 4 4v24a4 4 0 0 1-4 4H4a4 4 0 0 1-4-4V3a3 3 0 0 1 3-3zm24.556 8.929a9.308 9.308 0 0 1-2.724.76 4.82 4.82 0 0 0 2.085-2.67 9.393 9.393 0 0 1-3.01 1.171 4.7 4.7 0 0 0-3.462-1.523c-2.618 0-4.741 2.16-4.741 4.825 0 .377.042.745.123 1.099-3.94-.202-7.435-2.122-9.773-5.041a4.865 4.865 0 0 0-.642 2.426 4.844 4.844 0 0 0 2.109 4.016 4.666 4.666 0 0 1-2.148-.604v.06c0 2.338 1.635 4.288 3.803 4.732a4.69 4.69 0 0 1-2.14.081c.603 1.917 2.354 3.313 4.428 3.351a9.408 9.408 0 0 1-7.02 1.998 13.253 13.253 0 0 0 7.269 2.168c8.722 0 13.49-7.351 13.49-13.727 0-.21-.004-.418-.013-.625a9.699 9.699 0 0 0 2.366-2.497z" fill="#FFF"/></svg>