<svg width="32" height="32" fill="none" xmlns="http://www.w3.org/2000/svg"><path d="M0 4h31.404v24.675H0z"/><path d="M0 4h31.404v24.675H0z"/><path d="M0 4h31.404v24.675H0z"/><path d="M0 4h31.404v24.675H0z"/><path d="M3.724 9.034a1.197 1.197 0 0 0-.396-1.016L.396 4.522V4H9.5l7.038 15.275L22.725 4h8.68v.522l-2.508 2.38a.722.722 0 0 0-.278.695v17.48a.722.722 0 0 0 .278.696l2.449 2.38v.522H19.03v-.523l2.537-2.437c.249-.246.249-.319.249-.696V10.89l-7.052 17.727h-.953L5.6 10.89v11.88c-.069.5.099 1.003.454 1.364l3.299 3.96v.523H0v-.523l3.299-3.96a1.57 1.57 0 0 0 .425-1.363V9.034z" fill="#fff"/></svg>