<svg width="32" height="32" xmlns="http://www.w3.org/2000/svg"><path d="M16 0c-4.345 0-4.89.019-6.597.096C7.7.174 6.537.445 5.52.84a7.834 7.834 0 0 0-2.833 1.845A7.835 7.835 0 0 0 .84 5.52C.445 6.537.173 7.7.096 9.403.019 11.11 0 11.655 0 16c0 4.345.019 4.89.096 6.597.078 1.703.349 2.866.744 3.884a7.834 7.834 0 0 0 1.845 2.833 7.846 7.846 0 0 0 2.834 1.847c1.018.394 2.181.665 3.884.743C11.11 31.981 11.655 32 16 32c4.345 0 4.89-.019 6.597-.096 1.703-.078 2.866-.349 3.884-.744a7.834 7.834 0 0 0 2.833-1.845 7.846 7.846 0 0 0 1.847-2.834c.394-1.018.665-2.181.743-3.884C31.981 20.89 32 20.345 32 16c0-4.345-.019-4.89-.096-6.597-.078-1.703-.349-2.866-.744-3.884a7.834 7.834 0 0 0-1.845-2.833A7.835 7.835 0 0 0 26.48.84C25.463.445 24.3.173 22.597.096 20.89.019 20.345 0 16 0zm0 2.883c4.272 0 4.778.016 6.465.093 1.56.071 2.407.332 2.972.551.746.29 1.28.637 1.84 1.197.559.56.906 1.093 1.196 1.84.22.563.48 1.41.551 2.97.077 1.687.093 2.194.093 6.466s-.016 4.778-.093 6.465c-.071 1.56-.332 2.407-.551 2.972a4.956 4.956 0 0 1-1.197 1.84 4.964 4.964 0 0 1-1.84 1.196c-.563.22-1.41.48-2.97.551-1.687.077-2.194.093-6.466.093-4.273 0-4.779-.016-6.465-.093-1.56-.071-2.407-.332-2.972-.551a4.956 4.956 0 0 1-1.84-1.197 4.962 4.962 0 0 1-1.196-1.84c-.22-.563-.48-1.41-.551-2.97-.077-1.687-.093-2.194-.093-6.466s.016-4.778.093-6.465c.071-1.56.332-2.407.551-2.972.29-.746.637-1.28 1.197-1.84a4.962 4.962 0 0 1 1.84-1.196c.563-.22 1.41-.48 2.97-.551 1.687-.077 2.194-.093 6.466-.093zm0 4.901A8.215 8.215 0 0 0 7.784 16 8.215 8.215 0 0 0 16 24.216 8.215 8.215 0 0 0 24.216 16 8.215 8.215 0 0 0 16 7.784zm0 13.55a5.333 5.333 0 1 1 0-10.667 5.333 5.333 0 0 1 0 10.666zM26.46 7.458a1.92 1.92 0 1 1-3.84 0 1.92 1.92 0 0 1 3.84 0z" fill="#FFF"/></svg>