<svg width="20" height="21" xmlns="http://www.w3.org/2000/svg"><g fill="none" fill-rule="evenodd"><path d="M19.474 4.38a.417.417 0 0 0-.498-.09 3.62 3.62 0 0 1-.533.193c.294-.39.53-.826.634-1.219a.417.417 0 0 0-.642-.448c-.226.157-1.316.63-2.005.784-1.557-1.364-3.37-1.506-5.254-.406-1.532.894-1.865 2.713-1.8 3.821-3.506-.337-5.685-2.19-6.912-3.722a.426.426 0 0 0-.354-.155.42.42 0 0 0-.33.203c-.58.979-.74 2.061-.463 3.13.151.584.416 1.098.724 1.515a2.27 2.27 0 0 1-.424-.272.417.417 0 0 0-.68.323c0 1.836 1.149 3.061 2.221 3.701a3.113 3.113 0 0 1-.536-.115.417.417 0 0 0-.502.57c.603 1.333 1.744 2.25 3.157 2.582-1.234.724-2.885 1.08-4.396.905a.413.413 0 0 0-.444.285.416.416 0 0 0 .191.492c2.294 1.287 4.367 1.747 6.159 1.747 2.607 0 4.62-.973 5.845-1.787 3.302-2.192 5.36-6.127 5.074-9.648.529-.39 1.32-1.112 1.811-1.888a.412.412 0 0 0-.043-.502z" fill="#8169CA" fill-rule="nonzero"/><path d="M0 0h20v21H0z"/></g></svg>