<svg width="32" height="32" fill="none" xmlns="http://www.w3.org/2000/svg"><path d="M0 0h32v32H0z"/><path d="M31.915 5.405l-4.703 21.982c-.184.784-.507 1.29-.968 1.52-.415.185-.945.093-1.59-.276l-7.123-5.253-3.457 3.318c-.23.23-.415.391-.554.484-.23.138-.53.207-.899.207l.554-7.258 13.208-11.96c.184-.138.23-.253.138-.345-.046-.138-.184-.184-.415-.138-.184 0-.392.069-.622.207l-16.32 10.3-7.054-2.212c-.783-.23-1.152-.576-1.106-1.037.046-.46.53-.875 1.452-1.244L29.909 3.123c.692-.23 1.245-.138 1.66.277.415.369.53 1.037.346 2.005z" fill="#fff"/></svg>