<svg width="32" height="32" xmlns="http://www.w3.org/2000/svg"><path d="M4.8 0C2.334 0 0 2.4 0 4.8v22.4C0 29.735 2.378 32 4.8 32h22.4c2.468 0 4.8-2.374 4.8-4.8V4.8C32 2.222 29.672 0 27.2 0H4.8zm4.979 26.705H4.997V12.417H9.78v14.288zm-2.39-16.24h-.033c-1.603 0-2.643-1.097-2.643-2.47 0-1.4 1.07-2.467 2.706-2.467 1.635 0 2.641 1.066 2.673 2.467 0 1.373-1.037 2.47-2.704 2.47zm19.627 16.24h-4.78v-7.644c0-1.922-.693-3.232-2.422-3.232-1.323 0-2.107.884-2.452 1.738-.128.305-.16.731-.16 1.157v7.981h-4.779s.063-12.949 0-14.289h4.78v2.026c.635-.973 1.769-2.362 4.308-2.362 3.146 0 5.505 2.041 5.505 6.433v8.192zm-9.844-12.217c.008-.014.02-.03.031-.045v.045h-.03z" fill="#FFF"/></svg>