<svg width="111" height="43" xmlns="http://www.w3.org/2000/svg" xmlns:xlink="http://www.w3.org/1999/xlink"><use xlink:href="#path0_fill"/><use xlink:href="#path1_fill" transform="translate(12 7)" fill="#FFF"/><defs><path id="path0_fill" d="M0 0h111v43H0V0z"/><path id="path1_fill" d="M1.612 6.176h5.352l4.512 9.336 4.488-9.336h5.352V23h-4.392v-9.984l-3.84 8.328h-3.24l-3.84-8.328V23H1.612V6.176zM38.391 23l-.984-2.688h-6.792L29.607 23h-5.136l7.176-16.824h5.136L43.719 23h-5.328zm-6.384-6.336h4.08l-2.016-5.496-2.064 5.496zM43.719 6.176h14.784v3.984h-4.896V23h-5.016V10.16H43.72V6.176zm18.262 0h4.992V23h-4.992V6.176zm21.917 6.12a5.842 5.842 0 0 0-1.896-1.656c-.72-.416-1.424-.624-2.112-.624-.752 0-1.432.192-2.04.576-.608.384-1.088.92-1.44 1.608-.352.672-.528 1.432-.528 2.28 0 .848.176 1.616.528 2.304a4.242 4.242 0 0 0 1.44 1.608 3.741 3.741 0 0 0 2.04.576c.64 0 1.32-.176 2.04-.528A6.64 6.64 0 0 0 83.898 17l2.88 3.072c-.912.992-2.016 1.784-3.312 2.376-1.28.592-2.552.888-3.816.888-1.68 0-3.2-.376-4.56-1.128a8.366 8.366 0 0 1-3.168-3.168c-.768-1.344-1.152-2.848-1.152-4.512 0-1.632.392-3.104 1.176-4.416a8.324 8.324 0 0 1 3.24-3.12c1.376-.752 2.92-1.128 4.632-1.128 1.264 0 2.528.272 3.792.816 1.264.544 2.32 1.272 3.168 2.184l-2.88 3.432z"/></defs></svg>