<svg width="518" height="208" fill="none" xmlns="http://www.w3.org/2000/svg"><path fill-rule="evenodd" clip-rule="evenodd" d="M278.445 134.018a18.555 18.555 0 0 0-7.579 1.243c-2.417-4.784-4.501-9.126-4.058-9.101.981.037 4.881.206 4.881.206s.657-6.04.405-9.36c-.242-3.339-1.414-3.4-1.414-3.4l-4.372 1.371c-5.162 1.742-5.925 1.322-5.925 1.322s.061-5.154-.919-5.198c-.976-.039-5.746-1.243-5.746-1.243-.397-.78-3.609-2.482-5.286-3.727-1.871-2.127-8.397-6.845-13.112-10.134.628.174 1.29.293 1.973.314 4.682.207 8.656-3.428 8.863-8.116a8.517 8.517 0 0 0-8.134-8.857c-4.698-.213-8.667 3.433-8.868 8.123a8.523 8.523 0 0 0 1.67 5.44l-.639-.437c-1.133-1.026-2.432.324-2.432.324s-10.915 21.629-11.564 22.968c-.644 1.338 1.973 4.19 1.973 4.19l-14.889.336c-2.545.083-4.474 8.604-4.474 8.604-9.866 1.725-15.667 13.797-15.667 13.797l2.46 1.866-.173 4.095-4.496-.197c-1.632 1.682-.119 2.734-.119 2.734l4.49.202v.074l-.028.704h.017c-.011 10.213 8.038 18.71 18.347 19.153 10.32.443 19.082-7.339 19.939-17.522 2.074-.022 11.52-.095 17.592 0 6.838.095 8.575-3.939 8.575-3.939l.617-14.244s4.301.189 6.301-.706c1.985-.886 4.939-5.648 4.939-5.648l4.85 8.449c-4.356 3.248-7.277 8.357-7.529 14.206-.448 10.33 7.573 19.068 17.909 19.516 10.337.449 19.089-7.562 19.53-17.903.449-10.33-7.573-19.062-17.908-19.505zm-67.185 6.913c3.101 1.994 5.259 5.288 5.711 9.079l-5.732-.245a7.27 7.27 0 0 0-2.394-3.283l2.415-5.551zm-6.244-1.995a11.17 11.17 0 0 1 1.743.224l-1.794 5.848-.219-.016a7.224 7.224 0 0 0-6.866 4.185l-5.73-.247c1.24-5.927 6.609-10.263 12.866-9.994zm-1.087 25.169c-6.727-.297-11.979-5.798-12.047-12.442l5.342.224c-.179 3.989 2.915 7.35 6.9 7.529a7.213 7.213 0 0 0 7.529-6.902l5.341.236c-.644 6.61-6.344 11.64-13.065 11.355zm52.367-48.182c-11.514-.884-21.504 3.961-21.504 3.961s-.336.454-.684-.027c-2.001-2.858-2.231-4.985-2.231-4.985l4.793-11.137c3.705 4.661 19.731 9.647 19.731 9.647l-.105 2.541zm20.983 49.095c-6.964-.291-12.367-6.178-12.075-13.142a12.577 12.577 0 0 1 4.271-8.896l2.882 5.009a6.607 6.607 0 0 0-1.984 4.454 6.66 6.66 0 0 0 6.372 6.941 6.669 6.669 0 0 0 6.941-6.365 6.654 6.654 0 0 0-6.374-6.934c-.273-.012-.544 0-.813.011-.671-1.272-1.732-3.278-2.914-5.551 1.491-.533 3.1-.796 4.782-.729 6.962.297 12.367 6.19 12.069 13.148-.31 6.968-6.194 12.362-13.157 12.054z" fill="#8DC63F"/><path fill-rule="evenodd" clip-rule="evenodd" d="M88.222 99.83c-.32.196-.746.296-1.302.296h-.345l-10.612-.587c-4.239-.236-8.88-.354-13.908-.354-2.36 0-4.502.315-6.418.942a10.818 10.818 0 0 0-4.894 3.238c-1.34 1.534-2.36 3.591-3.067 6.184-.706 2.589-1.06 5.81-1.06 9.658v14.721c0 4.084.411 7.422 1.24 10.004.825 2.6 1.889 4.64 3.18 6.129 1.299 1.491 2.734 2.516 4.303 3.065 1.57.554 3.067.823 4.48.823 3.217 0 6.243-.118 9.075-.352v-27.09c0-.628.22-1.178.65-1.647a2.06 2.06 0 0 1 1.585-.707h15.086c.628 0 1.177.236 1.654.707.471.47.707 1.019.707 1.647v39.576c0 1.49-.786 2.397-2.36 2.7-3.219.639-6.953 1.21-11.19 1.714-4.248.511-9.316.769-15.208.769-2.197 0-4.579-.242-7.131-.711a33.16 33.16 0 0 1-7.54-2.354c-2.477-1.097-4.854-2.588-7.135-4.47-2.276-1.894-4.3-4.201-6.07-6.958-1.766-2.744-3.162-6.021-4.182-9.825-1.02-3.809-1.531-8.19-1.531-13.131v-14.609c0-7.54 1.058-13.718 3.184-18.554 2.118-4.828 4.888-8.648 8.307-11.483a29.452 29.452 0 0 1 11.547-5.887c4.284-1.093 8.55-1.649 12.786-1.649 5.897 0 10.926.332 15.085.998 4.17.672 7.349 1.238 9.547 1.708 1.34.235 2.006.829 2.006 1.77v12.487c.002.621-.155 1.036-.47 1.231zm84.028 33.628c0 6.829-.897 12.638-2.706 17.432-1.805 4.785-4.272 8.695-7.411 11.719-3.14 3.02-6.829 5.221-11.062 6.594-4.237 1.372-8.783 2.056-13.643 2.056-4.871 0-9.417-.684-13.649-2.056-4.239-1.372-7.922-3.574-11.067-6.594-3.133-3.024-5.605-6.934-7.41-11.719-1.799-4.794-2.702-10.603-2.702-17.432v-14.016c0-6.829.904-12.637 2.702-17.433 1.804-4.783 4.276-8.694 7.41-11.713 3.145-3.026 6.828-5.228 11.067-6.598 4.232-1.373 8.778-2.058 13.649-2.058 4.86 0 9.406.684 13.643 2.058 4.233 1.37 7.922 3.572 11.062 6.598 3.138 3.018 5.605 6.93 7.411 11.713 1.809 4.795 2.706 10.604 2.706 17.433v14.016zm-20.152-14.049c0-7.171-1.199-12.342-3.592-15.49-2.399-3.154-6.071-4.734-11.021-4.734-4.948 0-8.605 1.58-10.96 4.734-2.36 3.148-3.536 8.318-3.536 15.49v14.083c0 7.17 1.176 12.334 3.536 15.494 2.355 3.147 6.011 4.728 10.96 4.728 4.95 0 8.622-1.581 11.021-4.728 2.394-3.16 3.592-8.324 3.592-15.494v-14.083zm246.116 52.287c-3.425.358-8.313.537-14.676.537-3.771 0-7.394-.319-10.863-.952-3.477-.622-6.53-1.837-9.182-3.646-2.651-1.81-4.759-4.375-6.34-7.713-1.581-3.333-2.371-7.669-2.371-13.02v-39.095c0-5.338.79-9.664 2.371-12.958 1.581-3.3 3.689-5.848 6.34-7.652 2.652-1.81 5.722-3.024 9.237-3.652 3.515-.627 7.154-.941 10.927-.941 3.144 0 5.908.056 8.307.174 2.399.117 4.496.251 6.305.414 1.806.152 3.359.309 4.654.47 1.3.151 2.46.313 3.481.47 1.57.236 2.354 1.02 2.354 2.348v10.957c0 .633-.23 1.178-.707 1.648-.471.48-1.025.705-1.647.705H382.48c-2.752 0-4.698.57-5.837 1.714-1.137 1.137-1.71 3.237-1.71 6.303v10.716h30.529c.627 0 1.178.235 1.648.706.471.47.706 1.025.706 1.647v11.192c0 .628-.235 1.171-.706 1.647-.47.472-1.021.707-1.648.707h-30.529v12.48c0 3.064.573 5.165 1.71 6.307 1.139 1.133 3.084 1.709 5.837 1.709h23.924c.622 0 1.177.23 1.647.706.476.471.707 1.019.707 1.646v10.952c0 1.412-.784 2.241-2.354 2.476-2.045.313-4.776.651-8.19.998zm93.866-86.739c0 .47-.196 1.02-.582 1.653l-28.057 39.801 28.17 42.283c.313.397.47.828.47 1.299 0 .784-.549 1.177-1.647 1.177h-20.277c-.706 0-1.233-.158-1.585-.472a6.015 6.015 0 0 1-1.01-1.175l-23.913-38.871v38.153c0 .639-.237 1.188-.707 1.658-.477.471-1.033.706-1.653.706h-15.445c-.627 0-1.177-.236-1.647-.706-.471-.471-.706-1.019-.706-1.658V85.899c0-.629.235-1.155.706-1.591.47-.427 1.02-.65 1.647-.65h15.445c.62 0 1.176.223 1.653.65.47.436.707.962.707 1.59v37.454l25.925-38.284c.544-.94 1.412-1.41 2.59-1.41h18.034c1.25 0 1.882.437 1.882 1.299z" fill="#000"/><path fill-rule="evenodd" clip-rule="evenodd" d="M197.56 53.603c3.128-1.927 40.176-27.925 78.283 1.754 0 0 4.149-.987 3.885-3.708-.263-2.734-39.121-34.306-86.674-2.342-1.419.963 1.373 6.218 4.506 4.296z" fill="#8DC63F"/><path fill-rule="evenodd" clip-rule="evenodd" d="M206.49 65.502c2.387-1.551 30.641-22.425 59.7 1.41 0 0 3.347-.788 3.145-2.974-.203-2.195-29.833-27.543-66.096-1.882-1.083.774.863 4.987 3.251 3.446z" fill="#8DC63F"/><path fill-rule="evenodd" clip-rule="evenodd" d="M216.776 76.167c1.576-1.11 20.192-16.138 39.335 1.02 0 0 2.086-.823 1.957-2.397-.135-1.574-19.664-19.83-43.556-1.35-.712.555.693 3.842 2.264 2.727z" fill="#8DC63F"/><path fill-rule="evenodd" clip-rule="evenodd" d="M338.681 163.707c-.884 2.101-2.072 3.77-3.58 4.991-1.514 1.221-3.286 2.091-5.337 2.594-2.035.505-4.249.756-6.632.756-1.081 0-2.495.208-3.341.14-.846-.068-10.74.247-12.001.118-.936-.128-1.402-.66-1.402-1.608l-.286-15.506c0-.308.095-.604.292-.884.179-.291.433-.431.752-.431l8.699.062c1.077 0 1.744-.27 2.034-.802.282-.532.421-1.399.421-2.593l-.179-64.763c0-.499.185-.93.56-1.272a1.913 1.913 0 0 1 1.323-.515l17.636.118c.499 0 .947.173 1.323.514.374.342.565.767.565 1.273v68.778c0 3.193.028 6.923-.847 9.03z" fill="#000"/></svg>