<svg width="805" height="267" fill="none" xmlns="http://www.w3.org/2000/svg"><path d="M110.2 216.375v-34.2c36.2 0 64.3-35.9 50.4-74-5.1-14-16.4-25.3-30.5-30.4-38.1-13.8-74 14.2-74 50.4H22c0-57.7 55.8-102.7 116.3-83.8 26.4 8.3 47.5 29.3 55.7 55.7 18.9 60.5-26.1 116.3-83.8 116.3z" fill="#0080FF"/><path fill-rule="evenodd" clip-rule="evenodd" d="M110.3 182.375H76.2v-34.1h34.1v34.1zm-34.1 26.1H50.1v-26.1h26.1v26.1zm-26.1-26.1H28.2v-21.9h21.9v21.9z" fill="#0080FF"/><path d="M285.357 101.904c-6.681-4.737-15.183-7.029-24.9-7.029H239.2v68h21.408c9.718 0 18.22-2.445 24.901-7.488 3.644-2.597 6.529-6.265 8.654-10.849 1.974-4.584 3.037-10.086 3.037-16.045 0-5.96-1.063-11.308-3.037-15.892-2.125-4.584-5.01-8.252-8.806-10.697zm-33.707 4.432h6.681c7.44 0 13.513 1.528 18.22 4.431 5.162 3.209 7.743 9.169 7.743 17.726 0 8.863-2.581 15.128-7.743 18.49-4.403 2.903-10.477 4.431-18.068 4.431h-6.833v-45.078zm60.05-12.461c-2.143 0-3.827.773-5.357 2.165-1.378 1.392-2.143 3.093-2.143 5.258s.765 3.866 2.143 5.412c1.377 1.392 3.214 2.165 5.357 2.165 1.99 0 3.826-.773 5.357-2.165 1.378-1.392 2.143-3.247 2.143-5.412s-.765-3.866-2.143-5.258c-1.531-1.392-3.367-2.165-5.357-2.165zm6.5 21h-12v48h12v-48zm43.327 4.149c-3.687-3.18-7.68-5.149-12.134-5.149-6.758 0-12.288 2.272-16.588 6.815-4.301 4.392-6.605 10.147-6.605 17.114 0 6.663 2.15 12.418 6.451 16.962 4.301 4.392 9.984 6.664 16.588 6.664 4.608 0 8.755-1.212 11.981-3.787v1.06c0 3.938-1.076 6.967-3.226 9.087-2.15 2.121-5.069 3.181-8.755 3.181-5.529 0-9.062-2.121-13.363-7.876l-8.294 7.876.154.303c1.843 2.423 4.454 4.846 8.14 7.118 3.533 2.271 8.141 3.483 13.517 3.483 7.219 0 13.055-2.12 17.356-6.512 4.301-4.392 6.451-10.147 6.451-17.265v-43.163h-11.98v4.089h.307zm-3.226 28.169c-2.15 2.424-4.915 3.484-8.294 3.484-3.533 0-6.144-1.212-8.294-3.484-2.15-2.423-3.072-5.452-3.072-9.238 0-3.937 1.075-6.966 3.072-9.39 1.997-2.423 4.915-3.483 8.294-3.483 3.533 0 6.144 1.212 8.294 3.483 2.151 2.424 3.226 5.604 3.226 9.39 0 3.786-1.075 6.815-3.226 9.238zm36.899-32.318h-12v48h12v-48zm-5.5-21c-2.143 0-3.827.773-5.357 2.165-1.378 1.392-2.143 3.093-2.143 5.258s.765 3.866 2.143 5.412c1.377 1.392 3.214 2.165 5.357 2.165 1.99 0 3.826-.773 5.357-2.165 1.378-1.392 2.143-3.247 2.143-5.412s-.765-3.866-2.143-5.258c-1.531-1.392-3.214-2.165-5.357-2.165zm32.231 8h-11.878v12.995H403.2v11.007h6.853v19.875c0 6.268 1.218 10.702 3.655 13.301 2.436 2.599 6.852 3.822 12.944 3.822 1.979 0 3.959 0 5.787-.153h.609v-11.007l-4.112.152c-2.893 0-4.721-.458-5.635-1.528-.913-1.071-1.37-3.211-1.37-6.421v-18.193H433.2v-11.008h-11.269v-12.842zm79.269-7h-12v68h12v-68zm121.014 50.707c-2.151 2.439-4.454 4.573-6.144 5.641-1.689 1.067-3.839 1.676-6.297 1.676-3.532 0-6.45-1.219-8.754-3.963-2.304-2.592-3.532-6.098-3.532-10.061 0-4.116 1.228-7.47 3.532-10.061 2.304-2.591 5.222-3.963 8.754-3.963 3.84 0 7.987 2.439 11.519 6.554l7.986-7.622c-5.221-6.707-11.825-9.908-19.812-9.908-6.604 0-12.44 2.439-17.201 7.165-4.761 4.725-7.065 10.67-7.065 17.835 0 7.165 2.457 13.11 7.065 17.835 4.761 4.726 10.443 7.165 17.201 7.165 8.754 0 15.819-3.811 20.734-10.671l-7.986-7.622zm49.114-23.933c-1.675-2.439-3.958-4.268-6.851-5.64-2.893-1.372-6.242-2.134-9.896-2.134-6.699 0-12.18 2.439-16.291 7.317-3.959 4.878-6.09 10.823-6.09 17.988 0 7.317 2.284 13.262 6.547 17.835 4.415 4.573 10.2 6.86 17.356 6.86 8.069 0 14.768-3.354 19.792-9.756l.305-.305-7.917-7.622c-.761.915-1.827 1.829-2.74 2.744-1.218 1.067-2.284 1.982-3.502 2.591-1.827.915-3.806 1.372-6.09 1.372-3.35 0-6.09-.914-8.222-2.896-1.979-1.829-3.197-4.268-3.501-7.317h31.82l.152-4.421c0-3.049-.457-6.097-1.218-8.841-.761-2.744-1.979-5.336-3.654-7.775zm-26.339 11.281c.609-2.287 1.675-4.268 3.197-5.64 1.675-1.677 3.806-2.439 6.242-2.439 2.893 0 5.177.762 6.699 2.439 1.371 1.524 2.284 3.353 2.436 5.64h-18.574zm72.267-14.315c-3.658-3.058-8.688-4.74-14.937-4.74-3.963 0-7.773.917-11.126 2.599-3.201 1.529-6.25 4.282-8.231 7.646l.152.153 7.774 7.339c3.2-5.046 6.706-6.881 11.431-6.881 2.591 0 4.572.612 6.249 1.988 1.524 1.376 2.439 3.058 2.439 5.199v2.293c-3.049-.917-5.945-1.376-8.84-1.376-5.945 0-10.822 1.376-14.48 4.129-3.658 2.752-5.487 6.88-5.487 12.079 0 4.587 1.524 8.104 4.725 10.856 3.201 2.6 7.011 3.976 11.584 3.976 4.572 0 8.84-1.835 12.802-5.046v3.976H723.2v-30.887c-.457-5.658-2.286-10.245-5.944-13.303zm-21.339 25.994c1.372-.918 3.354-1.376 5.792-1.376 2.896 0 5.945.611 9.145 1.682v4.74c-2.591 2.446-6.096 3.67-10.364 3.67-2.134 0-3.658-.459-4.877-1.377-1.067-.917-1.677-1.987-1.677-3.516 0-1.682.61-2.906 1.981-3.823zm73.179-25.086c-3.403-3.816-8.198-5.648-14.231-5.648-4.795 0-8.816 1.374-11.755 4.121v-2.9H731.2v47.779h12.219v-26.408c0-3.664.928-6.564 2.63-8.548 1.701-1.985 4.021-3.053 7.27-3.053 2.784 0 4.795.915 6.341 2.747 1.547 1.832 2.32 4.427 2.32 7.48v27.782h12.22v-27.782c0-6.564-1.702-11.907-5.104-15.57zm-294.84-.908c-3.658-3.058-8.688-4.74-14.937-4.74-3.963 0-7.773.917-11.126 2.599-3.201 1.529-6.25 4.282-8.231 7.646l.152.153 7.774 7.339c3.2-5.046 6.706-6.881 11.431-6.881 2.591 0 4.572.612 6.249 1.988 1.524 1.376 2.439 3.058 2.439 5.199v2.293c-3.049-.917-5.945-1.376-8.84-1.376-5.945 0-10.822 1.376-14.48 4.129-3.658 2.752-5.487 6.88-5.487 12.079 0 4.587 1.524 8.104 4.725 10.856 3.201 2.6 7.011 3.976 11.584 3.976 4.572 0 8.84-1.835 12.802-5.046v3.976H480.2v-30.887c-.457-5.658-2.286-10.245-5.944-13.303zm-21.339 25.994c1.372-.918 3.354-1.376 5.792-1.376 2.896 0 5.944.611 9.145 1.682v4.74c-2.591 2.446-6.096 3.67-10.364 3.67-2.134 0-3.658-.459-4.877-1.377-1.067-.917-1.677-1.987-1.677-3.516 0-1.682.61-2.906 1.981-3.823zm91.283 19.266c-19.326 0-35-15.674-35-35s15.674-35 35-35 35 15.674 35 35-15.674 35-35 35zm0-57.674c-12.478 0-22.674 10.196-22.674 22.674s10.196 22.674 22.674 22.674 22.674-10.196 22.674-22.674-10.196-22.674-22.674-22.674z" fill="#0080FF"/></svg>